<?xml version="1.0" standalone="no"?>
<!DOCTYPE svg PUBLIC "-//W3C//DTD SVG 20010904//EN"
 "http://www.w3.org/TR/2001/REC-SVG-20010904/DTD/svg10.dtd">
<svg version="1.0" xmlns="http://www.w3.org/2000/svg"
 width="100" height="100" viewBox="0 0 300.000000 300.000000"
 preserveAspectRatio="xMidYMid meet">
<metadata>
Created by potrace 1.10, written by Peter Selinger 2001-2011
</metadata>
<g transform="translate(0.000000,300.000000) scale(0.100000,-0.100000)"
fill="#000000" stroke="none">
<path d="M1312 2245 l-193 -112 0 -234 c0 -180 3 -234 13 -240 8 -4 153 74
367 197 195 113 355 203 356 202 1 -2 0 -19 -2 -38 -4 -29 -12 -40 -46 -59
-23 -13 -167 -96 -320 -184 l-278 -160 92 -54 91 -53 202 117 c110 64 214 125
229 136 16 11 30 18 31 16 2 -2 1 -21 -1 -41 -5 -36 -8 -38 -200 -149 l-195
-112 23 -18 c13 -10 27 -19 30 -19 3 0 94 51 203 114 l197 114 2 106 c1 58 1
106 0 106 -2 0 -120 -68 -263 -151 l-261 -150 -30 19 -30 19 292 169 291 169
0 89 c0 66 -4 91 -14 97 -13 7 -73 -26 -567 -312 -84 -50 -154 -88 -155 -87 0
2 0 83 2 180 l3 177 194 112 c107 62 195 115 195 118 0 6 -50 32 -59 30 -4 -1
-93 -52 -199 -114z"/>
<path d="M1440 2176 l-195 -113 -3 -107 -3 -107 24 13 c13 7 144 82 291 167
l267 154 -29 19 -29 18 -219 -126 c-121 -70 -225 -131 -231 -136 -10 -8 -13
-1 -13 29 l0 39 199 114 199 115 -26 17 c-15 10 -29 18 -32 18 -3 0 -93 -52
-200 -114z"/>
<path d="M321 1238 c-84 -45 -114 -150 -68 -233 40 -73 146 -105 223 -69 48
23 60 40 40 60 -15 14 -20 14 -61 -6 -57 -28 -94 -20 -135 26 -39 45 -41 99
-4 143 42 50 123 59 171 20 11 -10 18 -8 34 8 l21 20 -38 23 c-55 35 -128 38
-183 8z"/>
<path d="M1365 1240 c-121 -60 -124 -234 -5 -297 168 -89 341 112 217 254 -56
64 -137 81 -212 43z m129 -45 c62 -30 85 -111 47 -169 -84 -128 -266 -12 -196
124 28 55 90 73 149 45z"/>
<path d="M625 1093 c-38 -86 -71 -161 -73 -165 -2 -4 10 -8 27 -8 27 0 33 5
47 40 l16 40 79 0 79 0 16 -40 c14 -35 20 -40 49 -40 l33 0 -73 163 c-67 152
-73 162 -101 165 -28 3 -30 0 -99 -155z m127 17 l26 -60 -57 0 -58 0 23 47
c13 25 24 52 24 60 0 29 17 10 42 -47z"/>
<path d="M950 1085 l0 -166 27 3 c26 3 28 6 28 53 0 54 1 55 44 55 25 0 36 -9
68 -55 35 -50 41 -55 76 -55 l38 0 -45 59 c-50 65 -53 71 -32 71 8 0 24 12 35
26 30 38 28 104 -3 141 -23 27 -28 28 -130 31 l-106 4 0 -167z m181 105 c24
-13 26 -72 3 -91 -9 -7 -42 -15 -75 -17 l-59 -4 0 61 0 61 56 0 c30 0 64 -5
75 -10z"/>
<path d="M1680 1085 l0 -165 105 0 105 0 0 31 0 31 -75 -4 -75 -3 0 137 0 138
-30 0 -30 0 0 -165z"/>
<path d="M1950 1085 l0 -165 28 0 27 0 0 165 0 165 -27 0 -28 0 0 -165z"/>
<path d="M2100 1085 l0 -165 31 0 32 0 -5 120 c-3 66 -2 120 1 119 3 0 46 -54
94 -120 78 -105 92 -119 118 -119 l29 0 0 165 0 165 -27 0 -28 0 3 -93 c7
-169 10 -168 -97 -29 -81 106 -97 122 -122 122 l-29 0 0 -165z"/>
<path d="M2573 1193 c-87 -197 -113 -258 -113 -265 0 -4 12 -8 28 -8 22 0 30
7 44 40 l17 40 78 0 78 0 17 -40 c14 -35 21 -40 48 -40 17 0 30 4 28 8 -1 4
-34 79 -73 165 -66 149 -71 157 -98 157 -25 0 -31 -7 -54 -57z m81 -79 c14
-31 26 -58 26 -60 0 -2 -25 -4 -54 -4 l-55 0 16 38 c8 20 19 47 24 60 5 12 11
22 13 22 3 0 16 -25 30 -56z"/>
<path d="M726 779 c-66 -52 9 -149 85 -108 29 15 12 31 -27 23 -29 -5 -35 -3
-45 20 -9 20 -9 29 1 41 14 17 46 20 55 5 5 -8 12 -7 22 1 13 11 13 14 -3 26
-26 19 -57 16 -88 -8z"/>
<path d="M876 779 c-33 -26 -34 -68 -3 -97 47 -44 120 -15 120 48 0 62 -65 90
-117 49z m68 -15 c10 -4 16 -18 16 -35 0 -22 -6 -30 -25 -35 -43 -11 -73 34
-43 64 13 13 28 15 52 6z"/>
<path d="M1030 730 l0 -70 43 0 c52 0 87 28 87 68 0 47 -33 72 -94 72 l-36 0
0 -70z m94 18 c15 -25 -3 -52 -38 -56 -24 -3 -26 -1 -26 38 0 39 2 41 26 38
15 -2 32 -11 38 -20z"/>
<path d="M1200 730 l0 -70 55 0 c42 0 55 3 55 15 0 11 -11 15 -40 15 -29 0
-40 4 -40 15 0 10 11 15 35 15 19 0 35 5 35 10 0 6 -16 10 -35 10 -24 0 -35 5
-35 15 0 10 11 15 35 15 24 0 35 5 35 15 0 11 -12 15 -50 15 l-50 0 0 -70z"/>
<path d="M1445 784 c-9 -9 -14 -23 -11 -31 3 -8 6 -16 6 -18 0 -2 16 -9 35
-15 19 -6 35 -16 35 -21 0 -12 -36 -12 -60 1 -13 7 -19 6 -24 -5 -11 -30 64
-47 98 -22 26 19 16 50 -22 66 -40 18 -42 35 -2 28 32 -7 51 10 29 24 -23 14
-66 10 -84 -7z"/>
<path d="M1590 780 c-43 -43 -11 -120 49 -120 30 0 57 22 46 39 -4 7 -13 6
-25 -2 -26 -16 -55 2 -55 33 0 32 29 49 55 32 17 -10 21 -10 27 4 13 36 -64
47 -97 14z"/>
<path d="M1730 730 c0 -56 3 -70 15 -70 10 0 15 10 15 28 0 23 4 27 30 27 26
0 30 -4 30 -27 0 -18 5 -28 15 -28 12 0 15 14 15 70 0 56 -3 70 -15 70 -10 0
-15 -10 -15 -30 0 -27 -3 -30 -30 -30 -27 0 -30 3 -30 30 0 20 -5 30 -15 30
-12 0 -15 -14 -15 -70z"/>
<path d="M1912 780 c-44 -42 -13 -120 48 -120 42 0 70 26 70 66 0 65 -71 98
-118 54z m78 -25 c26 -32 -13 -81 -47 -59 -35 22 -23 74 17 74 10 0 23 -7 30
-15z"/>
<path d="M2080 780 c-11 -11 -20 -33 -20 -50 0 -17 9 -39 20 -50 43 -43 120
-11 120 50 0 38 -32 70 -70 70 -17 0 -39 -9 -50 -20z m80 -25 c26 -32 -13 -81
-47 -59 -35 22 -23 74 17 74 10 0 23 -7 30 -15z"/>
<path d="M2240 730 l0 -70 45 0 c33 0 45 4 45 15 0 10 -10 15 -30 15 -30 0
-30 1 -30 55 0 42 -3 55 -15 55 -12 0 -15 -14 -15 -70z"/>
</g>
</svg>
