<?xml version="1.0" standalone="no"?>
<!DOCTYPE svg PUBLIC "-//W3C//DTD SVG 20010904//EN"
 "http://www.w3.org/TR/2001/REC-SVG-20010904/DTD/svg10.dtd">
<svg version="1.0" xmlns="http://www.w3.org/2000/svg"
 width="470.000000pt" height="531.000000pt" viewBox="0 0 470.000000 531.000000"
 preserveAspectRatio="xMidYMid meet">
<metadata>
Created by potrace 1.10, written by Peter Selinger 2001-2011
</metadata>
<g transform="translate(0.000000,531.000000) scale(0.050000,-0.050000)"
fill="#000000" stroke="none">
<path d="M4030 10398 c-1763 -169 -3068 -1450 -3269 -3208 -21 -181 -30 -2254
-11 -2274 6 -6 32 -6 59 -1 l47 9 10 1143 c8 1050 12 1161 51 1363 295 1559
1512 2691 3045 2832 324 30 1164 12 1409 -30 1199 -205 2229 -1091 2637 -2269
160 -462 171 -573 181 -1940 5 -598 11 -1090 15 -1093 3 -4 31 -13 62 -21 l57
-14 -9 1197 c-7 972 -15 1226 -40 1348 -414 2025 -2055 3169 -4244 2958z m930
-38 c1727 -117 3030 -1320 3281 -3030 49 -326 60 -2400 14 -2385 -19 6 -27
271 -36 1197 -10 1135 -12 1197 -55 1388 -190 850 -547 1440 -1224 2024 -708
611 -1839 882 -3069 735 -1305 -156 -2422 -1059 -2849 -2304 -144 -420 -181
-725 -182 -1475 -1 -778 -22 -1550 -43 -1550 -24 0 -21 1841 4 2161 94 1192
732 2201 1763 2788 681 388 1380 519 2396 451z"/>
<path d="M8670 10148 c-37 -28 -30 -30 92 -26 73 2 140 -1 151 -8 10 -6 32 -3
48 7 32 20 -22 27 -178 21 -55 -2 -82 4 -73 17 17 28 8 26 -40 -11z"/>
<path d="M8945 9847 c-26 -11 -34 -71 -12 -93 27 -27 48 11 23 42 -22 27 -21
30 8 19 24 -9 31 -5 23 16 -6 16 -13 28 -14 27 -2 0 -14 -6 -28 -11z"/>
<path d="M8965 9551 c2 -82 8 -145 13 -140 15 16 14 272 -2 281 -8 5 -12 -58
-11 -141z"/>
<path d="M3629 9292 c-75 -33 -169 -141 -169 -194 0 -40 -8 -45 -108 -67 -72
-16 -171 -119 -186 -195 -10 -51 -71 -115 -188 -198 -131 -91 -77 -98 779 -98
899 0 941 9 717 147 -32 20 -75 80 -103 142 -49 111 -100 158 -196 182 -30 7
-55 26 -55 42 0 188 -288 327 -491 239z m351 -69 c47 -39 78 -87 95 -147 22
-79 35 -93 102 -113 91 -27 130 -67 162 -167 22 -70 121 -176 163 -176 10 0
18 -9 18 -20 0 -13 -267 -20 -760 -20 -418 0 -760 7 -760 15 0 8 32 35 71 60
46 30 86 82 117 152 51 116 132 193 203 193 59 0 102 44 119 120 37 170 312
230 470 103z"/>
<path d="M3686 9238 c-81 -23 -143 -102 -159 -201 -12 -73 -16 -77 -87 -77
-90 0 -165 -54 -201 -144 -14 -36 -42 -90 -62 -119 -21 -29 -37 -59 -37 -65 0
-7 280 -12 622 -12 342 0 618 7 614 15 -5 8 -32 66 -61 128 -58 125 -116 177
-197 177 -48 0 -57 11 -78 100 -27 111 -111 200 -190 200 -26 0 -59 4 -73 8
-15 5 -56 0 -91 -10z m244 -66 c29 -19 58 -66 71 -117 34 -129 47 -144 130
-157 77 -13 129 -60 129 -118 0 -18 13 -50 29 -71 17 -22 30 -43 30 -49 1 -5
-251 -10 -559 -10 -308 0 -557 5 -554 10 3 6 26 55 51 110 55 122 89 150 183
150 86 0 120 29 120 101 0 160 220 249 370 151z"/>
<path d="M5179 9151 c-10 -10 -19 -157 -19 -326 0 -300 -11 -368 -78 -465 -15
-22 -74 -33 -226 -40 l-206 -10 -10 -240 c-17 -402 -52 -430 -523 -430 l-340
0 7 -45 6 -45 1275 -5 1275 -5 -1 -685 -1 -685 -62 120 c-293 570 -1079 1009
-2055 1149 -429 61 -491 62 -491 2 0 -48 6 -49 320 -93 1320 -185 2157 -742
2276 -1513 l11 -75 -505 0 -506 0 2 255 2 255 -207 6 c-229 6 -252 -3 -269
-104 -14 -88 -105 -274 -172 -350 l-52 -60 -614 -6 c-338 -3 -608 -1 -600 5 8
7 74 37 147 67 628 259 939 865 604 1175 -152 140 -544 291 -624 240 -63 -41
-15 -91 114 -117 724 -146 702 -747 -43 -1146 -146 -78 -529 -220 -593 -220
-56 0 -92 -53 -61 -90 22 -27 234 -30 1748 -25 l1722 5 5 1755 c3 965 -2 1755
-10 1756 -219 12 -1232 4 -1246 -10z m1221 -1522 c1 -813 1 -1585 0 -1714 l0
-235 -1700 0 c-1038 0 -1700 7 -1700 19 0 19 11 24 160 62 1153 297 1448 1219
452 1410 -43 9 -63 25 -49 39 40 40 458 -119 552 -210 349 -335 52 -881 -638
-1173 -97 -42 -177 -83 -177 -91 0 -9 304 -16 676 -16 l676 0 74 97 c84 110
144 238 165 348 l13 75 200 0 200 0 -8 -225 c-5 -124 -13 -238 -18 -255 -7
-26 63 -30 542 -30 l550 0 -7 70 c-82 827 -1053 1458 -2478 1611 -69 7 -125
21 -125 31 0 26 56 22 350 -21 1106 -162 1808 -549 2163 -1191 l77 -140 10
720 c6 396 7 727 4 735 -4 8 -577 15 -1275 15 -1046 0 -1269 5 -1269 27 0 21
64 26 312 24 469 -3 533 49 545 442 l7 227 181 0 c296 0 335 64 335 552 l0
287 585 6 c322 3 592 0 600 -6 8 -6 15 -676 15 -1490z"/>
<path d="M5253 9087 c-7 -8 -13 -66 -13 -130 l0 -116 235 -5 c271 -7 312 -39
50 -40 -290 0 -278 8 -290 -184 -6 -93 -24 -192 -43 -227 -55 -107 -62 -105
391 -105 233 0 420 -4 415 -8 -4 -5 -292 -13 -638 -19 -347 -5 -632 -10 -635
-11 -3 -1 -5 -86 -5 -189 0 -168 -6 -200 -59 -304 -32 -64 -55 -123 -50 -131
10 -16 1613 -16 1695 1 l57 11 0 567 c0 645 13 590 -149 596 -172 6 -164 5
-143 26 10 10 82 22 158 25 l139 6 -6 110 c-3 60 -10 116 -15 125 -11 18
-1075 20 -1094 2z m1083 -131 l6 -94 -156 -6 c-141 -5 -156 -10 -156 -46 0
-36 15 -41 155 -46 l155 -6 0 -559 0 -559 -850 0 -851 0 55 83 c48 73 56 105
63 280 l8 197 615 0 c647 0 685 5 653 90 -10 25 -74 30 -421 30 l-410 0 39 85
c25 56 38 130 39 219 l0 135 235 5 c220 6 235 9 235 46 0 37 -15 40 -235 46
l-235 5 0 99 0 99 525 -4 525 -5 6 -94z"/>
<path d="M5831 8826 c-15 -41 38 -89 81 -72 15 5 28 32 28 58 0 58 -88 69
-109 14z"/>
<path d="M4919 6115 c-28 -102 -87 -222 -150 -308 -64 -84 -56 -87 204 -87
273 0 269 -4 283 285 l9 195 -162 0 -161 0 -23 -85z m301 -52 c0 -65 -6 -159
-13 -210 l-12 -93 -211 0 c-199 0 -208 2 -179 35 35 40 135 234 135 263 0 93
38 122 160 122 l120 0 0 -117z"/>
<path d="M2785 8345 c-7 -19 -42 -62 -77 -96 -89 -84 -90 -95 -84 -1009 l6
-810 250 0 250 0 0 50 c0 40 -11 51 -55 56 -66 8 -64 -3 -15 131 61 161 119
206 105 82 -13 -110 19 -144 89 -98 64 42 65 40 32 -72 -23 -79 -24 -107 -5
-130 51 -62 119 -8 119 95 0 25 23 86 51 134 67 118 36 163 -91 129 -90 -24
-91 -23 -50 93 34 96 27 120 -38 120 -116 0 -298 -200 -343 -376 -23 -93 -24
-94 -108 -94 l-85 0 -3 787 -3 786 47 39 c62 50 172 49 223 -2 42 -42 48 -89
40 -353 -4 -180 18 -227 110 -227 139 0 210 70 210 207 0 75 30 113 90 113 76
0 90 -38 90 -240 0 -220 -22 -263 -155 -299 -156 -43 -292 -169 -317 -295 -14
-72 47 -114 82 -55 94 159 113 174 325 261 88 35 150 111 176 213 7 30 25 55
39 55 14 0 30 11 35 25 14 37 -5 75 -37 75 -40 0 -37 157 4 203 40 44 23 97
-30 97 -59 0 -176 76 -188 121 -13 48 -71 51 -88 4 -7 -19 -43 -69 -79 -110
-37 -41 -67 -93 -67 -115 0 -38 -2 -38 -40 -5 -22 18 -40 58 -40 87 0 37 13
57 40 64 54 14 50 46 -10 86 -27 18 -50 49 -50 69 0 20 -9 42 -20 49 -11 7
-14 35 -7 63 14 60 -23 94 -74 67 -40 -22 -123 -3 -145 33 -23 39 -93 33 -109
-8z m81 -32 c15 -38 154 -58 191 -27 25 20 28 17 18 -23 -7 -26 -4 -62 6 -80
11 -18 28 -58 38 -88 11 -30 34 -55 51 -55 16 0 30 -9 30 -20 0 -11 -13 -20
-29 -20 -43 0 -56 -35 -42 -111 8 -41 25 -69 42 -69 16 0 29 -9 29 -20 0 -11
-9 -20 -19 -20 -31 0 -60 -69 -42 -99 32 -52 121 -8 121 60 0 84 49 192 99
219 24 12 51 42 61 66 14 34 18 36 19 9 0 -20 30 -47 71 -64 39 -16 70 -38 70
-50 0 -12 24 -21 53 -21 50 0 51 -2 20 -37 -44 -48 -47 -243 -4 -243 46 0 59
-42 15 -53 -27 -7 -43 -34 -52 -87 -15 -97 -95 -166 -240 -209 -114 -33 -201
-112 -224 -203 -14 -54 -48 -65 -48 -15 0 99 137 224 291 265 156 41 240 276
181 509 -44 176 -252 137 -252 -47 0 -108 -56 -164 -156 -156 l-74 6 -10 253
c-9 234 -14 258 -58 305 -71 75 -185 72 -264 -6 l-58 -59 0 -811 0 -812 120 0
c92 0 120 7 120 29 0 129 142 361 262 429 91 52 100 42 66 -72 -40 -131 -40
-131 72 -116 100 14 131 -9 82 -61 -10 -10 -37 -73 -59 -139 -34 -100 -40
-110 -42 -58 0 34 9 91 21 126 28 80 13 96 -57 61 -30 -15 -63 -31 -73 -36 -9
-4 -13 43 -8 105 12 144 -4 152 -93 48 -123 -144 -156 -316 -60 -316 27 0 49
-9 49 -20 0 -12 -87 -20 -220 -20 l-220 0 0 843 0 843 80 76 c44 42 80 86 80
97 0 30 34 26 46 -6z"/>
<path d="M2804 8116 c-28 -28 -34 -829 -6 -873 25 -40 91 -19 98 32 4 25 19
45 33 45 15 0 31 11 36 25 14 37 -5 75 -37 75 -20 0 -28 27 -28 100 0 76 7
100 30 100 17 0 30 18 30 41 0 22 -13 45 -30 52 -20 8 -30 39 -30 97 0 58 10
89 30 97 17 7 30 30 30 52 0 23 -13 41 -30 41 -18 0 -30 18 -30 46 0 43 -33
94 -60 94 -7 0 -23 -11 -36 -24z m56 -65 c0 -27 16 -58 35 -70 33 -20 33 -22
0 -42 -47 -28 -51 -234 -5 -252 17 -6 30 -19 30 -29 0 -10 -13 -18 -30 -18
-47 0 -42 -211 5 -239 33 -20 33 -22 0 -48 -19 -15 -35 -42 -35 -60 0 -18 -9
-33 -20 -33 -13 0 -20 153 -20 420 0 267 7 420 20 420 11 0 20 -22 20 -49z"/>
<path d="M5607 7430 c-7 -18 15 -56 56 -95 l67 -65 -109 -6 c-172 -10 -219
-87 -81 -131 53 -18 79 -43 109 -108 l40 -85 204 0 c112 0 216 -5 231 -10 42
-17 100 35 85 76 -7 18 -26 34 -41 34 -40 0 -34 46 13 107 55 69 44 121 -27
129 -51 6 -54 12 -43 73 17 90 -48 116 -132 53 -71 -52 -62 -52 -151 8 -83 57
-203 67 -221 20z m207 -47 c22 -11 51 -35 65 -52 23 -27 32 -25 85 19 88 74
114 66 101 -30 -10 -79 -9 -80 52 -80 74 0 74 0 23 -85 -52 -85 -51 -128 5
-142 109 -28 -6 -54 -216 -49 -200 6 -219 9 -226 46 -10 55 -97 144 -155 159
-115 28 -11 67 145 54 82 -7 62 132 -24 164 -17 7 -26 21 -20 31 12 20 96 2
165 -35z"/>
<path d="M5806 7255 c10 -106 -5 -128 -67 -94 -60 31 -66 15 -26 -69 l34 -72
146 0 c154 0 154 0 175 85 11 46 6 55 -28 55 -31 0 -40 13 -40 60 0 67 -38 81
-54 20 -12 -45 -66 -55 -66 -12 0 15 -19 49 -41 75 l-42 47 9 -95z m112 -90
c41 11 102 -46 102 -95 0 -50 -232 -42 -259 9 -18 32 -14 39 24 45 33 4 47 22
52 66 7 59 8 59 25 13 13 -33 30 -45 56 -38z"/>
<path d="M2815 7117 c-46 -25 -49 -200 -5 -237 51 -42 90 10 90 120 0 106 -31
148 -85 117z m45 -117 c0 -55 -9 -100 -20 -100 -11 0 -20 45 -20 100 0 55 9
100 20 100 11 0 20 -45 20 -100z"/>
<path d="M4706 6908 c-6 -18 13 -82 44 -143 30 -60 71 -161 89 -223 l33 -112
191 -6 c281 -8 292 64 63 391 l-88 125 -160 0 c-128 0 -162 -6 -172 -32z m382
-105 c79 -108 151 -254 152 -308 0 -31 -21 -35 -169 -35 l-168 0 -33 114 c-19
63 -55 157 -82 209 -26 53 -48 100 -48 106 0 6 62 11 138 11 l139 0 71 -97z"/>
<path d="M4826 6815 c5 -25 28 -90 51 -145 22 -55 45 -116 51 -135 11 -35 226
-54 258 -23 15 16 -74 195 -141 283 -65 85 -238 101 -219 20z m201 -60 c47
-63 113 -182 113 -204 0 -6 -39 -11 -87 -11 l-88 0 -47 125 c-26 69 -51 132
-54 140 -24 52 119 8 163 -50z"/>
<path d="M820 4799 c-17 -12 -110 -18 -220 -15 -167 5 -190 2 -196 -29 -9 -46
83 -81 181 -69 85 11 95 -11 36 -81 -25 -30 -59 -45 -105 -45 -71 0 -116 -29
-116 -74 0 -16 24 -26 61 -26 l60 0 -50 -75 c-62 -90 -66 -145 -12 -145 26 0
61 37 105 110 36 61 80 110 97 110 63 0 113 56 76 86 -44 34 31 132 127 163
46 14 66 33 66 61 0 46 -63 62 -110 29z m22 -55 c-114 -57 -202 -180 -153
-216 37 -27 36 -28 -15 -28 -43 0 -68 -22 -127 -110 -40 -61 -77 -107 -82
-102 -11 11 49 126 75 142 45 28 19 70 -45 73 -54 3 -50 5 24 15 89 12 211
134 193 192 -3 11 27 30 66 43 108 34 141 30 64 -9z m-172 -14 c11 -4 -25 -7
-80 -8 -55 -1 -112 6 -127 16 -24 15 159 8 207 -8z"/>
<path d="M1321 4729 c-76 -82 -180 -267 -181 -320 0 -27 -107 -89 -153 -88
-39 0 -11 31 72 78 24 14 24 23 4 48 -22 26 -17 31 31 37 41 4 56 17 56 46 0
96 -213 11 -227 -91 -4 -27 -21 -65 -38 -84 -60 -67 -64 -34 -11 75 98 198 2
206 -101 8 -79 -153 -36 -266 77 -203 23 13 54 12 89 -1 42 -16 70 -13 121 13
62 31 69 31 104 -1 32 -28 48 -30 98 -11 34 12 74 18 90 12 15 -6 50 3 77 21
61 40 71 40 71 2 0 -16 7 -31 15 -32 293 -36 522 107 292 183 -90 30 -60 67
50 63 89 -4 126 42 75 92 -57 58 -257 -46 -268 -140 -3 -28 -24 -68 -45 -87
-72 -65 -38 14 114 265 142 234 89 305 -57 76 -67 -104 -93 -130 -134 -130
-37 0 -83 -34 -164 -120 -105 -113 -158 -146 -158 -100 0 11 55 90 122 175
151 189 173 233 138 274 -40 49 -69 37 -159 -60z m139 26 c0 -36 -59 -126
-177 -273 -115 -143 -124 -175 -58 -201 l45 -18 -44 -2 c-24 0 -53 15 -64 34
-17 30 -26 31 -61 10 -68 -42 -76 -27 -9 16 44 28 75 74 105 154 23 63 69 147
102 185 58 66 57 64 -9 -37 -67 -102 -88 -164 -55 -162 28 1 87 99 73 122 -8
14 -5 18 7 10 31 -19 111 101 99 148 -7 25 0 39 18 39 15 0 28 -11 28 -25z
m281 -60 c-160 -243 -240 -492 -124 -388 38 34 40 34 59 0 17 -29 31 -32 76
-16 80 28 80 62 -2 89 -83 28 -86 66 -9 124 54 40 159 59 153 26 -2 -10 -21
-16 -42 -13 -95 16 -174 -81 -87 -108 167 -51 72 -151 -135 -142 -89 3 -100 9
-98 48 2 55 -12 56 -77 6 -29 -23 -75 -38 -109 -35 l-60 4 62 83 c34 45 80 94
102 107 30 19 27 10 -12 -32 -64 -71 -84 -122 -53 -141 30 -18 195 169 181
206 -7 17 0 24 17 17 17 -6 56 35 104 110 43 66 82 120 87 120 6 0 -9 -29 -33
-65z m-841 -164 c0 -5 -28 -56 -62 -114 -58 -99 -60 -106 -26 -131 33 -24 33
-26 1 -26 -54 0 -63 59 -21 136 21 39 38 76 38 82 1 37 70 88 70 53z m113 -48
c-43 -47 -42 -70 2 -55 19 7 5 -13 -32 -44 -68 -57 -66 -76 17 -111 17 -7 3
-8 -30 -2 -33 6 -71 12 -85 13 -27 3 -1 45 53 88 16 12 21 33 13 46 -16 26 41
102 75 102 11 0 5 -16 -13 -37z m490 -38 c-24 -45 -103 -117 -103 -94 0 16
100 129 114 129 4 0 -1 -16 -11 -35z"/>
<path d="M4117 4800 c-60 -36 -179 -216 -220 -335 -22 -63 -48 -124 -59 -134
-32 -33 -20 26 21 107 46 91 39 102 -63 102 -95 0 -156 -38 -224 -141 -77
-116 -102 -96 -34 26 31 58 54 115 49 127 -5 13 10 28 32 34 39 10 56 72 28
100 -20 20 -87 -25 -87 -59 0 -17 -22 -49 -50 -71 -27 -21 -50 -57 -50 -78 0
-56 -92 -135 -174 -150 -100 -19 -119 14 -54 91 46 55 57 60 72 33 25 -45 50
-40 89 19 83 128 -106 143 -207 17 -110 -137 -145 -168 -190 -167 -45 0 -45 1
9 45 62 51 70 84 23 102 -45 17 -48 16 -48 -20 0 -22 11 -28 35 -19 19 7 4
-13 -33 -44 -73 -61 -71 -105 3 -105 23 0 36 -6 29 -12 -7 -7 -35 -7 -63 0
-57 14 -66 60 -21 105 17 17 25 39 18 50 -6 11 4 37 23 58 37 41 81 54 58 18
-9 -14 10 -20 54 -15 98 9 98 87 0 83 -76 -4 -163 -74 -163 -132 0 -21 -13
-51 -30 -68 -43 -43 -37 -81 19 -118 50 -33 158 -26 181 11 6 10 37 3 68 -15
53 -31 63 -31 142 0 74 29 88 30 114 4 33 -33 64 -36 105 -10 18 11 43 11 66
-2 27 -14 50 -12 82 9 38 25 49 25 87 0 31 -21 54 -23 80 -9 24 13 49 13 73 0
23 -13 54 -13 91 -1 34 12 68 12 89 1 19 -11 46 -12 64 -2 17 10 58 14 91 9
l61 -9 -50 -52 c-63 -68 -73 -122 -26 -150 31 -20 45 -13 90 46 29 38 96 109
148 158 127 119 124 212 -2 98 l-50 -45 47 80 c25 44 54 89 63 99 25 28 21 91
-6 91 -13 0 -68 -47 -121 -105 l-97 -105 41 86 c39 81 39 124 0 124 -9 0 -45
-49 -79 -108 -53 -93 -111 -148 -133 -127 -29 29 141 255 192 255 74 0 93 32
49 81 -19 22 -28 39 -20 39 9 0 4 14 -10 31 -22 27 -31 25 -79 -21 l-55 -52 3
75 c2 81 -29 104 -91 67z m66 -62 c-5 -16 -12 -44 -18 -63 -7 -26 2 -35 35
-35 25 0 58 16 72 35 25 33 27 33 27 0 1 -19 17 -36 36 -36 19 -1 4 -12 -33
-25 -101 -35 -261 -334 -179 -334 13 0 19 -5 12 -11 -6 -7 -29 -1 -50 13 -38
23 -37 29 38 160 90 160 90 158 32 157 -101 -3 -273 -275 -200 -317 32 -19 32
-21 1 -21 -18 -1 -40 9 -47 20 -7 12 -27 16 -45 10 -28 -11 -27 -8 2 25 19 20
34 50 35 66 0 15 14 55 30 88 16 33 25 44 20 25 -12 -44 5 -45 52 -2 42 38 50
77 12 55 -15 -8 -18 -7 -8 4 9 10 26 18 38 18 12 0 26 13 31 28 6 18 1 22 -16
12 -17 -11 -21 -8 -12 7 8 13 23 19 33 13 26 -17 85 85 71 122 -8 20 -3 28 13
22 14 -5 22 -21 18 -36z m-23 -166 c0 -46 -140 -243 -176 -248 -63 -10 -56 11
50 141 79 98 126 138 126 107z m-789 -54 c7 -12 3 -32 -10 -45 -18 -17 -20
-15 -10 12 23 61 -58 41 -129 -33 -83 -86 -80 -156 8 -175 52 -11 53 -13 12
-15 -27 -1 -66 13 -86 32 -28 25 -42 28 -60 10 -51 -51 -58 -21 -9 31 29 30
83 89 121 130 67 74 136 96 163 53z m141 -83 c-56 -96 -66 -154 -27 -157 19
-1 18 -4 -1 -12 -69 -27 -97 58 -39 119 30 33 55 76 55 95 0 32 38 65 57 49 3
-3 -17 -46 -45 -94z m239 59 c-103 -62 -199 -214 -135 -214 28 0 184 160 184
189 0 15 14 32 32 39 17 7 28 5 24 -3 -4 -8 -24 -49 -46 -91 -31 -62 -34 -83
-14 -115 20 -32 19 -39 -6 -39 -16 0 -30 14 -30 30 0 39 -29 38 -89 -1 -36
-24 -58 -27 -87 -11 -21 11 -45 14 -54 6 -8 -8 15 30 51 83 35 54 93 110 127
124 76 34 95 35 43 3z m549 -74 c-67 -132 -35 -139 87 -18 62 62 113 108 113
103 0 -5 -32 -65 -71 -135 -39 -69 -62 -129 -52 -133 11 -4 -16 -47 -59 -97
-93 -107 -108 -64 -18 50 82 103 81 173 -1 99 -22 -20 -52 -26 -83 -19 l-50
13 54 57 c30 32 66 86 80 120 14 34 29 57 34 53 5 -5 -10 -47 -34 -93z m-564
-4 c-16 -23 -50 -57 -76 -74 l-47 -32 36 56 c31 47 82 91 108 93 5 1 -5 -19
-21 -43z"/>
<path d="M2368 4752 c-225 -104 -244 -238 -42 -295 46 -13 93 -32 104 -42 53
-47 -184 -121 -240 -75 -43 35 -94 9 -86 -45 18 -125 354 -75 442 67 44 71 0
134 -126 180 -172 62 -73 169 133 145 76 -9 104 -4 125 21 79 94 -136 125
-310 44z m278 -14 c-15 -15 -48 -15 -109 -2 l-87 20 109 2 c78 1 103 -4 87
-20z m-292 -58 c-125 -79 -110 -131 48 -167 208 -48 146 -202 -96 -242 -88
-15 -166 -1 -166 29 0 10 27 9 59 -3 95 -33 281 43 281 114 0 14 -47 41 -105
60 -186 60 -201 143 -41 227 114 61 126 50 20 -18z"/>
<path d="M4966 4740 c-206 -118 -314 -333 -225 -447 86 -109 359 6 359 151 0
48 -6 47 -111 -34 -98 -75 -189 -93 -189 -38 0 97 197 329 278 327 22 0 10
-19 -35 -58 -37 -32 -61 -67 -54 -79 24 -39 88 -23 159 39 184 162 44 269
-182 139z m40 -40 c-120 -69 -199 -164 -237 -284 -14 -47 -27 -68 -27 -46 -3
107 133 289 268 359 106 55 103 33 -4 -29z m189 25 c11 -34 -103 -145 -148
-144 -28 0 -24 8 17 30 72 39 102 95 70 128 -19 20 -16 23 14 18 21 -4 42 -18
47 -32z m-167 -347 c-54 -60 -143 -102 -194 -92 -39 8 -38 9 7 11 29 2 87 30
130 62 94 71 109 76 57 19z"/>
<path d="M8104 4725 c-79 -101 -304 -445 -304 -466 0 -27 34 -40 68 -27 34 13
372 511 372 547 0 48 -81 16 -136 -54z m-64 -205 c-148 -222 -215 -304 -158
-195 53 100 285 435 301 435 10 0 -55 -108 -143 -240z"/>
<path d="M5889 4711 c-23 -34 -52 -51 -89 -51 -75 0 -125 -57 -63 -73 24 -7
43 -15 43 -20 0 -20 -87 -180 -115 -212 -60 -68 -67 -34 -13 62 72 128 58 162
-62 154 -50 -3 -94 -9 -97 -13 -173 -222 -189 -410 -20 -225 49 53 79 77 68
53 -51 -106 1 -190 92 -148 37 16 59 17 77 2 46 -38 138 1 222 95 63 70 97 92
145 93 63 2 81 -14 43 -38 -88 -54 15 -195 105 -144 57 33 61 33 85 0 22 -29
34 -31 78 -11 38 18 65 18 99 3 35 -16 64 -14 121 10 68 28 79 28 106 1 18
-19 45 -26 64 -17 17 7 50 12 72 11 110 -9 137 -3 184 40 112 105 152 241 82
279 -64 34 -163 -27 -236 -145 -94 -153 -141 -128 -54 28 57 101 82 127 133
138 84 17 94 30 54 74 -18 20 -28 41 -23 47 6 6 -1 20 -16 33 -21 17 -38 11
-74 -27 -26 -28 -66 -50 -89 -50 -80 0 -119 -69 -52 -90 51 -16 -39 -194 -115
-229 -129 -59 -192 7 -94 99 47 45 52 45 76 12 34 -46 81 1 71 72 -17 114
-277 -20 -277 -143 0 -21 -10 -45 -21 -52 -42 -25 -39 6 9 96 27 50 44 97 37
103 -32 33 -175 9 -238 -39 -72 -55 -82 -52 -43 11 36 57 -5 95 -71 65 -55
-25 -97 1 -79 49 7 17 -1 38 -16 47 -15 10 -28 33 -28 51 0 55 -45 55 -81 -1z
m67 -73 c19 -1 7 -10 -26 -19 -64 -19 -75 -32 -161 -198 -54 -103 -55 -107
-19 -134 32 -23 33 -27 5 -27 -18 0 -39 10 -46 21 -7 12 -28 16 -46 9 -24 -9
-22 -1 9 34 106 117 166 268 113 282 -22 6 -14 10 20 12 32 1 65 19 80 43 20
32 26 34 31 10 4 -17 22 -32 40 -33z m1020 0 c19 -2 7 -8 -26 -15 -92 -20
-269 -343 -187 -343 13 0 18 -6 10 -13 -30 -31 -95 58 -67 91 30 36 134 213
134 229 0 6 -20 14 -45 19 -33 6 -27 9 20 11 41 2 74 18 90 44 20 32 26 34 31
10 4 -17 22 -32 40 -33z m-1042 -130 c-65 -106 -149 -200 -164 -184 -30 29
113 256 162 256 l46 0 -44 -72z m-408 -1 c-7 -18 -4 -29 6 -24 10 5 43 21 73
36 79 40 89 14 28 -78 -57 -86 -68 -152 -28 -168 15 -6 10 -10 -11 -11 -56 -3
-61 50 -12 137 70 125 27 122 -96 -5 -137 -143 -147 -138 -46 22 77 121 112
158 86 91z m465 -13 c-1 -51 -130 -214 -170 -214 -14 0 0 30 32 67 31 37 72
95 91 130 41 75 48 78 47 17z m149 30 c0 -9 -14 -34 -32 -55 -27 -33 -30 -34
-20 -4 6 19 1 35 -10 35 -11 0 -15 9 -8 20 15 24 70 27 70 4z m540 -13 c0 -16
-9 -34 -20 -41 -11 -7 -14 1 -8 19 22 57 -53 34 -126 -39 -78 -78 -80 -127 -6
-164 48 -24 48 -25 6 -26 -24 0 -50 10 -57 21 -7 12 -28 16 -46 9 -26 -10 -28
-7 -8 13 14 14 25 40 25 58 0 45 75 138 128 159 65 27 112 23 112 -9z m436
-22 c6 -44 -102 -209 -138 -209 -11 0 11 38 50 84 80 93 94 156 34 156 -78 0
-186 -177 -141 -231 15 -19 16 -29 3 -29 -12 0 -27 9 -35 21 -7 11 -32 15 -56
9 -38 -10 -39 -9 -8 10 19 12 49 51 67 86 66 133 210 199 224 103z m-805 5
c-107 -65 -202 -214 -137 -214 26 0 186 168 186 194 0 14 13 26 30 26 24 0 22
-12 -10 -65 -45 -74 -52 -147 -15 -162 15 -6 12 -10 -9 -11 -18 -1 -39 16 -46
38 -12 39 -13 39 -69 -3 -87 -64 -136 1 -80 105 22 42 134 119 169 117 11 -1
2 -12 -19 -25z m749 -24 c0 -43 -119 -169 -119 -127 -1 30 89 157 111 157 4 0
8 -13 8 -30z m-760 -50 c-21 -40 -100 -93 -100 -67 0 21 84 107 104 107 10 0
8 -18 -4 -40z"/>
<path d="M935 4678 c-46 -26 -47 -103 -2 -94 18 3 42 22 54 40 29 47 -4 81
-52 54z"/>
<path d="M2622 4435 c-77 -124 -159 -252 -181 -285 -50 -74 -53 -130 -6 -130
22 0 61 42 99 107 57 93 72 106 129 106 51 0 81 19 141 87 118 132 131 258 25
231 -46 -11 -49 -8 -30 27 29 54 26 82 -8 82 -15 0 -92 -101 -169 -225z m115
94 c-23 -39 -37 -76 -30 -83 7 -6 -11 -39 -40 -73 -49 -58 -49 -62 -14 -88 34
-26 33 -27 -13 -15 -44 10 -59 0 -108 -79 -60 -94 -91 -124 -50 -47 39 73 241
404 263 431 37 47 34 25 -8 -46z m127 -60 c-8 -48 -106 -173 -145 -186 -16 -5
5 28 46 74 41 46 75 92 75 103 0 26 -54 26 -70 0 -7 -11 -23 -20 -36 -19 -13
0 -2 18 24 41 59 48 115 42 106 -13z m-64 -30 c0 -29 -93 -119 -123 -119 -14
0 6 32 43 70 74 76 80 80 80 49z"/>
<path d="M7560 4569 c-55 -25 -78 -26 -114 -7 -33 18 -52 18 -72 1 -18 -15
-34 -15 -47 -2 -36 36 -75 1 -153 -136 -114 -201 -76 -251 65 -84 63 74 91 95
110 80 13 -11 30 -15 37 -8 7 7 28 0 46 -15 19 -15 57 -39 86 -53 49 -24 46
-25 -34 -15 -99 12 -140 -34 -72 -84 51 -38 145 -18 206 43 59 59 46 101 -42
137 l-66 27 46 25 c33 17 54 19 72 4 35 -30 98 19 89 69 -9 50 -68 56 -157 18z
m-269 -75 c-1 -40 -151 -245 -151 -207 0 32 129 253 147 253 3 0 4 -21 4 -46z
m149 30 c0 -9 -13 -34 -29 -55 -28 -37 -30 -37 -30 16 -1 36 9 55 29 55 17 0
30 -7 30 -16z m105 -24 c-81 -49 -82 -78 -3 -93 68 -14 96 -57 59 -93 -18 -19
-22 -18 -17 3 6 27 -24 51 -89 71 -76 23 -6 148 85 151 17 0 1 -17 -35 -39z"/>
<path d="M5240 4548 c-172 -108 -198 -401 -27 -308 75 41 187 192 187 251 0
80 -79 108 -160 57z m120 -28 c61 -38 -119 -272 -198 -255 -58 12 -35 132 40
203 l65 62 -52 -65 c-93 -116 -93 -217 1 -167 91 49 155 211 89 228 -25 7 -26
10 -5 11 17 1 43 -6 60 -17z m-74 -102 c-35 -59 -106 -116 -106 -84 0 38 82
146 111 146 27 0 27 -8 -5 -62z"/>
<path d="M8113 4475 c-96 -151 -116 -193 -103 -215 25 -40 65 -18 127 69 78
109 118 138 75 54 -56 -108 14 -213 96 -144 24 19 44 19 97 0 58 -21 80 -19
160 17 62 27 89 32 83 15 -15 -39 54 -57 88 -23 40 40 15 100 -36 86 -22 -6
-35 -3 -30 6 21 35 -31 41 -88 11 -58 -30 -162 -43 -162 -20 0 71 100 156 132
113 32 -44 88 1 88 69 0 55 -39 77 -105 59 -60 -16 -148 -86 -131 -103 8 -7
38 5 68 29 81 64 171 51 127 -19 -15 -24 -18 -23 -19 6 0 52 -48 42 -119 -24
-79 -74 -79 -161 -1 -185 41 -12 39 -13 -10 -4 -33 6 -80 13 -105 15 -38 2
-41 7 -16 25 32 23 78 128 62 143 -5 6 -21 -16 -35 -47 -25 -57 -58 -93 -72
-78 -4 4 18 53 49 108 66 117 49 168 -42 126 -31 -14 -51 -15 -51 -4 0 54 -68
8 -127 -85z m79 33 c-9 -24 -4 -29 19 -20 17 6 -12 -37 -65 -97 -132 -150
-130 -121 7 104 32 52 57 60 39 13z m148 12 c0 -12 -24 -57 -54 -102 -45 -68
-50 -88 -30 -120 16 -24 17 -38 4 -38 -44 0 -45 70 -3 148 27 49 36 84 24 88
-12 4 -16 16 -10 26 15 25 69 23 69 -2z"/>
<path d="M749 4095 c-5 -14 -7 -763 -4 -1665 l5 -1640 3785 -5 3785 -5 -5
1665 -5 1665 -55 6 -55 7 -2 -487 c-2 -267 -4 -992 -5 -1611 l-3 -1125 -3665
0 -3665 0 0 1610 0 1610 -51 0 c-27 0 -55 -11 -60 -25z m88 -2150 l3 -1085
3690 0 3690 0 0 1610 c0 1418 4 1610 30 1610 26 0 30 -194 30 -1630 l0 -1630
-3750 0 -3750 0 0 1617 c0 889 7 1623 15 1631 22 22 39 -870 42 -2123z"/>
<path d="M5170 2968 c-12 -5 -17 -94 -13 -228 4 -149 0 -220 -15 -220 -12 0
-22 -9 -22 -20 0 -11 37 -20 82 -20 67 0 80 6 70 32 -7 17 -12 130 -12 250 0
226 -7 241 -90 206z m45 -342 c-4 -64 -7 -17 -8 104 0 121 4 173 8 116 4 -58
4 -157 0 -220z"/>
<path d="M2768 2937 c-7 -12 1 -31 19 -41 46 -25 48 -319 3 -356 -52 -43 -33
-60 70 -60 96 0 133 28 70 53 -52 20 -43 367 9 367 38 0 81 -53 81 -100 0 -12
-24 -44 -53 -71 l-53 -49 49 0 c134 0 189 156 84 239 -58 46 -254 59 -279 18z
m96 -112 c-10 -164 -18 -180 -21 -40 -2 74 4 135 12 135 8 0 13 -43 9 -95z
m216 -4 c0 -18 -11 -49 -25 -68 -21 -29 -25 -21 -25 55 0 69 6 84 25 68 14
-12 25 -36 25 -55z"/>
<path d="M3408 2911 c-16 -40 7 -71 51 -71 45 0 66 47 35 78 -31 31 -73 28
-86 -7z"/>
<path d="M4148 2911 c-16 -40 7 -71 52 -71 46 0 64 26 48 68 -15 40 -85 42
-100 3z"/>
<path d="M5353 2927 c-30 -30 -12 -87 27 -87 29 0 40 13 40 50 0 47 -36 67
-67 37z"/>
<path d="M3956 2785 c-31 -35 -24 -224 9 -277 8 -14 77 -24 165 -25 139 -1
182 15 128 48 -13 8 -19 60 -15 130 8 129 -3 152 -56 123 -28 -16 -36 -46 -36
-137 -1 -122 -9 -129 -106 -97 -53 18 -31 170 25 170 31 0 50 11 50 30 0 19
-19 30 -50 30 -27 0 -50 9 -50 20 0 31 -31 24 -64 -15z m54 -143 c0 -65 -7
-114 -15 -109 -8 5 -15 58 -15 118 0 60 7 109 15 109 8 0 15 -53 15 -118z"/>
<path d="M3437 2779 c-25 -14 -30 -39 -22 -108 14 -121 -2 -159 -55 -131 -31
16 -40 42 -40 108 0 108 -39 148 -116 119 -30 -11 -52 -31 -49 -45 4 -14 -3
-20 -13 -13 -11 6 -25 3 -31 -7 -22 -36 35 -48 61 -13 15 21 39 31 57 24 51
-19 35 -53 -40 -85 -172 -72 -107 -139 137 -143 l189 -3 -10 144 c-11 159 -20
180 -68 153z m-137 -164 c0 -56 -4 -97 -10 -92 -16 17 -22 214 -6 204 9 -5 16
-55 16 -112z"/>
<path d="M5362 2782 c-19 -12 -28 -62 -30 -160 l-2 -142 65 0 c63 0 86 25 45
50 -11 7 -20 70 -20 141 0 130 -7 143 -58 111z m38 -152 c0 -60 -7 -110 -15
-110 -8 0 -15 50 -15 110 0 61 7 110 15 110 8 0 15 -49 15 -110z"/>
<path d="M3607 2766 c-16 -6 -20 -43 -13 -114 7 -69 3 -111 -11 -120 -43 -27
-23 -52 43 -52 l65 0 0 115 c-1 102 4 115 39 115 46 0 70 -138 31 -177 -38
-38 -22 -53 59 -53 76 0 104 23 60 50 -11 7 -20 57 -20 110 0 122 -109 176
-253 126z m43 -136 c0 -60 -7 -110 -15 -110 -8 0 -15 50 -15 110 0 61 7 110
15 110 8 0 15 -49 15 -110z"/>
<path d="M4348 2766 c-13 -4 -18 -48 -12 -114 5 -66 0 -112 -14 -121 -45 -28
-19 -51 58 -51 81 0 97 15 59 53 -39 39 -15 177 31 177 36 0 40 -13 38 -115
l-3 -115 68 0 c65 0 88 25 47 50 -11 7 -20 52 -20 100 0 127 -108 185 -252
136z m229 -175 l-2 -81 -13 90 c-7 50 -20 104 -29 120 -9 17 -2 13 16 -9 18
-23 30 -72 28 -120z"/>
<path d="M4700 2740 c-46 -46 -49 -66 -19 -123 16 -29 15 -47 -3 -69 -18 -22
-18 -36 -2 -52 15 -15 13 -34 -9 -67 -62 -95 85 -165 212 -100 132 69 92 233
-50 206 -26 -5 -58 -1 -73 8 -18 11 -9 16 28 17 58 0 106 38 126 100 7 22 21
40 31 40 56 0 9 56 -56 67 -117 20 -142 16 -185 -27z m133 -50 c20 -52 -35
-102 -66 -60 -13 19 -19 47 -13 62 14 37 64 36 79 -2z m57 -270 c0 -40 -103
-75 -133 -45 -12 12 -17 37 -10 55 17 42 143 34 143 -10z"/>
<path d="M5528 2766 c-13 -4 -18 -48 -12 -114 5 -66 0 -112 -14 -121 -45 -28
-19 -51 58 -51 81 0 97 15 59 53 -39 39 -15 177 31 177 46 0 70 -138 31 -177
-38 -38 -22 -53 59 -53 76 0 104 23 60 50 -11 7 -20 56 -20 109 0 125 -104
177 -252 127z"/>
<path d="M5889 2731 c-61 -61 -65 -155 -9 -211 47 -47 145 -53 180 -9 23 27
29 27 61 -2 48 -43 137 -30 174 26 28 42 25 49 -35 105 -69 64 -67 106 2 63
37 -23 40 -21 35 21 -8 53 -72 71 -136 37 -58 -32 -51 -89 19 -148 70 -59 74
-73 20 -73 -22 0 -40 8 -40 17 0 10 -52 17 -115 15 -105 -2 -116 2 -121 43 -6
41 1 45 85 45 100 0 118 29 54 87 -52 47 -117 41 -174 -16z"/>
<path d="M3389 2170 c-39 -30 -39 -30 0 -60 35 -27 42 -27 69 0 49 49 -13 103
-69 60z"/>
<path d="M5762 2182 c-111 -20 -160 -202 -55 -202 167 0 168 -173 1 -217 -68
-18 -88 -63 -28 -63 235 0 322 309 99 353 -84 17 -73 42 26 61 55 11 87 29 91
52 7 36 -12 39 -134 16z m74 -193 c31 -22 43 -50 41 -95 l-2 -64 -13 67 c-8
42 -30 77 -62 94 -27 15 -41 28 -29 28 11 1 40 -13 65 -30z"/>
<path d="M4684 2159 c-48 -19 -43 -59 7 -59 23 0 29 -34 29 -160 0 -133 -5
-160 -32 -160 -17 0 -28 -11 -23 -25 5 -14 19 -24 32 -23 13 1 55 3 93 5 66 3
104 43 40 43 -25 0 -30 36 -30 200 0 217 -4 224 -116 179z"/>
<path d="M4981 2127 c-64 -82 -36 -188 56 -212 70 -18 99 20 46 62 -59 45 -55
153 5 153 141 0 66 -287 -99 -383 -77 -44 -7 -54 82 -11 151 74 222 279 138
400 -47 66 -172 62 -228 -9z m225 -172 c-20 -61 -21 -59 -21 45 0 91 3 102 20
65 14 -30 14 -65 1 -110z"/>
<path d="M5321 2127 c-64 -82 -36 -188 56 -212 58 -15 103 20 58 46 -81 48
-85 179 -5 179 136 0 64 -324 -85 -382 -48 -18 -62 -58 -20 -58 125 2 287 206
267 337 -22 146 -184 200 -271 90z m226 -177 c-15 -45 -18 -33 -18 63 0 102 2
109 18 54 10 -38 10 -85 0 -117z"/>
<path d="M3175 2018 c-51 -29 -43 -109 15 -154 28 -22 50 -50 50 -62 0 -33
-60 -27 -73 8 -18 47 -51 35 -43 -15 5 -35 21 -46 72 -51 131 -13 165 81 60
163 -67 53 -63 100 5 57 52 -32 59 -31 59 14 0 58 -78 80 -145 40z"/>
<path d="M3388 2028 c-13 -6 -18 -51 -12 -119 6 -70 0 -120 -16 -139 -21 -26
-14 -30 58 -30 79 0 106 23 60 51 -13 8 -19 59 -15 126 7 112 -10 138 -75 111z"/>
<path d="M3578 2020 c-25 -15 -30 -41 -23 -119 7 -64 1 -112 -15 -131 -22 -26
-13 -30 62 -30 67 0 81 5 62 24 -50 50 -30 196 26 196 56 0 76 -146 26 -196
-19 -19 -5 -24 60 -24 46 0 84 9 84 20 0 11 -9 20 -20 20 -11 0 -20 49 -20
109 0 128 -45 173 -133 133 -29 -13 -47 -14 -47 -2 0 25 -20 25 -62 0z"/>
<path d="M3970 2016 c-144 -83 -105 -276 56 -276 71 0 114 30 114 78 0 23 -5
25 -24 6 -59 -59 -156 -6 -156 84 0 47 72 78 120 52 32 -17 43 -15 53 11 24
61 -83 91 -163 45z"/>
<path d="M4209 1991 c-130 -130 10 -317 172 -230 61 32 47 64 -22 49 -65 -14
-119 14 -119 62 0 19 25 28 81 28 100 0 128 48 60 103 -62 50 -113 46 -172
-12z"/>
</g>
</svg>
